<svg width="50" height="50" viewBox="0 0 50 50" fill="none" xmlns="http://www.w3.org/2000/svg">
<circle cx="25" cy="25" r="25" fill="#FF5A5A"/>
<path d="M27.4948 25L34.478 18.0168C34.8094 17.686 34.9958 17.2371 34.9962 16.7688C34.9966 16.3005 34.811 15.8512 34.4802 15.5198C34.1494 15.1884 33.7004 15.002 33.2321 15.0016C32.7638 15.0011 32.3146 15.1868 31.9832 15.5176L25 22.5008L18.0168 15.5176C17.6854 15.1862 17.2359 15 16.7672 15C16.2985 15 15.849 15.1862 15.5176 15.5176C15.1862 15.849 15 16.2985 15 16.7672C15 17.2359 15.1862 17.6854 15.5176 18.0168L22.5008 25L15.5176 31.9832C15.1862 32.3146 15 32.7641 15 33.2328C15 33.7015 15.1862 34.151 15.5176 34.4824C15.849 34.8138 16.2985 35 16.7672 35C17.2359 35 17.6854 34.8138 18.0168 34.4824L25 27.4992L31.9832 34.4824C32.3146 34.8138 32.7641 35 33.2328 35C33.7015 35 34.151 34.8138 34.4824 34.4824C34.8138 34.151 35 33.7015 35 33.2328C35 32.7641 34.8138 32.3146 34.4824 31.9832L27.4948 25Z" fill="#F2F2F7"/>
</svg>
